<svg width="269" height="66" viewBox="0 0 269 66" fill="none" xmlns="http://www.w3.org/2000/svg">
<rect width="269" height="66" fill="#FDFDFD"/>
<path d="M95.778 33.168C94.658 33.168 93.622 32.986 92.67 32.622C91.732 32.244 90.913 31.719 90.213 31.047C89.527 30.361 88.988 29.563 88.596 28.653C88.204 27.743 88.008 26.742 88.008 25.65C88.008 24.558 88.204 23.557 88.596 22.647C88.988 21.737 89.534 20.946 90.234 20.274C90.934 19.588 91.753 19.063 92.691 18.699C93.643 18.321 94.679 18.132 95.799 18.132C96.933 18.132 97.976 18.328 98.928 18.72C99.894 19.098 100.713 19.665 101.385 20.421L100.02 21.744C99.46 21.156 98.83 20.722 98.13 20.442C97.43 20.148 96.681 20.001 95.883 20.001C95.057 20.001 94.287 20.141 93.573 20.421C92.873 20.701 92.264 21.093 91.746 21.597C91.228 22.101 90.822 22.703 90.528 23.403C90.248 24.089 90.108 24.838 90.108 25.65C90.108 26.462 90.248 27.218 90.528 27.918C90.822 28.604 91.228 29.199 91.746 29.703C92.264 30.207 92.873 30.599 93.573 30.879C94.287 31.159 95.057 31.299 95.883 31.299C96.681 31.299 97.43 31.159 98.13 30.879C98.83 30.585 99.46 30.137 100.02 29.535L101.385 30.858C100.713 31.614 99.894 32.188 98.928 32.58C97.976 32.972 96.926 33.168 95.778 33.168ZM106.026 33V23.109L106.53 23.634H101.952V21.87H112.116V23.634H107.559L108.042 23.109V33H106.026ZM114.745 37.2C114.213 37.2 113.695 37.109 113.191 36.927C112.687 36.759 112.253 36.507 111.889 36.171L112.75 34.659C113.03 34.925 113.338 35.128 113.674 35.268C114.01 35.408 114.367 35.478 114.745 35.478C115.235 35.478 115.641 35.352 115.963 35.1C116.285 34.848 116.586 34.4 116.866 33.756L117.559 32.223L117.769 31.971L122.137 21.87H124.111L118.714 34.113C118.392 34.897 118.028 35.513 117.622 35.961C117.23 36.409 116.796 36.724 116.32 36.906C115.844 37.102 115.319 37.2 114.745 37.2ZM117.391 33.357L112.309 21.87H114.409L118.735 31.782L117.391 33.357ZM133.202 32.055V23.634H128.372L128.267 25.776C128.239 26.476 128.19 27.155 128.12 27.813C128.064 28.457 127.966 29.052 127.826 29.598C127.7 30.144 127.511 30.592 127.259 30.942C127.007 31.292 126.671 31.509 126.251 31.593L124.256 31.236C124.69 31.25 125.04 31.11 125.306 30.816C125.572 30.508 125.775 30.088 125.915 29.556C126.069 29.024 126.181 28.422 126.251 27.75C126.321 27.064 126.377 26.357 126.419 25.629L126.587 21.87H135.218V32.055H133.202ZM123.815 35.583V31.236H136.919V35.583H135.029V33H125.726V35.583H123.815ZM139.546 33V21.87H141.562V29.976L148.387 21.87H150.214V33H148.198V24.894L141.394 33H139.546ZM161.246 33V29.094L161.561 29.472H158.012C156.528 29.472 155.366 29.157 154.526 28.527C153.7 27.897 153.287 26.98 153.287 25.776C153.287 24.488 153.728 23.515 154.61 22.857C155.506 22.199 156.696 21.87 158.18 21.87H163.052V33H161.246ZM153.182 33L156.206 28.737H158.285L155.345 33H153.182ZM161.246 28.464V23.067L161.561 23.634H158.243C157.319 23.634 156.605 23.809 156.101 24.159C155.597 24.495 155.345 25.055 155.345 25.839C155.345 27.295 156.283 28.023 158.159 28.023H161.561L161.246 28.464ZM180.227 32.055V23.634H175.397L175.292 25.776C175.264 26.476 175.215 27.155 175.145 27.813C175.089 28.457 174.991 29.052 174.851 29.598C174.725 30.144 174.536 30.592 174.284 30.942C174.032 31.292 173.696 31.509 173.276 31.593L171.281 31.236C171.715 31.25 172.065 31.11 172.331 30.816C172.597 30.508 172.8 30.088 172.94 29.556C173.094 29.024 173.206 28.422 173.276 27.75C173.346 27.064 173.402 26.357 173.444 25.629L173.612 21.87H182.243V32.055H180.227ZM170.84 35.583V31.236H183.944V35.583H182.054V33H172.751V35.583H170.84ZM186.57 33V21.87H188.586V29.976L195.411 21.87H197.238V33H195.222V24.894L188.418 33H186.57ZM204.222 33.147C205.202 33.147 206.07 33.007 206.826 32.727C207.596 32.433 208.205 32.034 208.653 31.53C209.101 31.012 209.325 30.417 209.325 29.745C209.325 28.905 208.968 28.24 208.254 27.75C207.54 27.26 206.56 27.015 205.314 27.015L205.23 27.498C205.958 27.498 206.602 27.379 207.162 27.141C207.722 26.903 208.17 26.581 208.506 26.175C208.842 25.755 209.01 25.279 209.01 24.747C209.01 24.117 208.786 23.571 208.338 23.109C207.904 22.647 207.309 22.297 206.553 22.059C205.797 21.807 204.936 21.695 203.97 21.723C203.326 21.737 202.675 21.835 202.017 22.017C201.373 22.185 200.715 22.43 200.043 22.752L200.589 24.327C201.191 24.033 201.779 23.816 202.353 23.676C202.941 23.536 203.515 23.459 204.075 23.445C204.649 23.445 205.146 23.508 205.566 23.634C206 23.76 206.336 23.942 206.574 24.18C206.812 24.418 206.931 24.705 206.931 25.041C206.931 25.349 206.826 25.622 206.616 25.86C206.42 26.084 206.14 26.252 205.776 26.364C205.412 26.476 204.985 26.532 204.495 26.532H202.605V27.981H204.621C205.447 27.981 206.091 28.121 206.553 28.401C207.015 28.681 207.246 29.08 207.246 29.598C207.246 29.962 207.12 30.284 206.868 30.564C206.616 30.83 206.252 31.04 205.776 31.194C205.314 31.348 204.761 31.425 204.117 31.425C203.417 31.425 202.724 31.334 202.038 31.152C201.352 30.956 200.743 30.69 200.211 30.354L199.602 31.887C200.232 32.293 200.946 32.608 201.744 32.832C202.556 33.042 203.382 33.147 204.222 33.147ZM219.215 33V30.648L219.11 30.207V26.196C219.11 25.342 218.858 24.684 218.354 24.222C217.864 23.746 217.122 23.508 216.128 23.508C215.47 23.508 214.826 23.62 214.196 23.844C213.566 24.054 213.034 24.341 212.6 24.705L211.76 23.193C212.334 22.731 213.02 22.381 213.818 22.143C214.63 21.891 215.477 21.765 216.359 21.765C217.885 21.765 219.061 22.136 219.887 22.878C220.713 23.62 221.126 24.754 221.126 26.28V33H219.215ZM215.561 33.126C214.735 33.126 214.007 32.986 213.377 32.706C212.761 32.426 212.285 32.041 211.949 31.551C211.613 31.047 211.445 30.48 211.445 29.85C211.445 29.248 211.585 28.702 211.865 28.212C212.159 27.722 212.628 27.33 213.272 27.036C213.93 26.742 214.812 26.595 215.918 26.595H219.446V28.044H216.002C214.994 28.044 214.315 28.212 213.965 28.548C213.615 28.884 213.44 29.29 213.44 29.766C213.44 30.312 213.657 30.753 214.091 31.089C214.525 31.411 215.127 31.572 215.897 31.572C216.653 31.572 217.311 31.404 217.871 31.068C218.445 30.732 218.858 30.242 219.11 29.598L219.509 30.984C219.243 31.642 218.774 32.167 218.102 32.559C217.43 32.937 216.583 33.126 215.561 33.126ZM224.756 33V21.87H226.772V29.976L233.597 21.87H235.424V33H233.408V24.894L226.604 33H224.756ZM229.964 20.421C228.942 20.421 228.137 20.176 227.549 19.686C226.975 19.182 226.681 18.461 226.667 17.523H228.032C228.046 18.055 228.221 18.475 228.557 18.783C228.907 19.091 229.369 19.245 229.943 19.245C230.517 19.245 230.979 19.091 231.329 18.783C231.679 18.475 231.861 18.055 231.875 17.523H233.282C233.268 18.461 232.967 19.182 232.379 19.686C231.791 20.176 230.986 20.421 229.964 20.421ZM239.337 33V21.87H241.353V26.595H247.695V21.87H249.711V33H247.695V28.338H241.353V33H239.337ZM260.456 33V30.648L260.351 30.207V26.196C260.351 25.342 260.099 24.684 259.595 24.222C259.105 23.746 258.363 23.508 257.369 23.508C256.711 23.508 256.067 23.62 255.437 23.844C254.807 24.054 254.275 24.341 253.841 24.705L253.001 23.193C253.575 22.731 254.261 22.381 255.059 22.143C255.871 21.891 256.718 21.765 257.6 21.765C259.126 21.765 260.302 22.136 261.128 22.878C261.954 23.62 262.367 24.754 262.367 26.28V33H260.456ZM256.802 33.126C255.976 33.126 255.248 32.986 254.618 32.706C254.002 32.426 253.526 32.041 253.19 31.551C252.854 31.047 252.686 30.48 252.686 29.85C252.686 29.248 252.826 28.702 253.106 28.212C253.4 27.722 253.869 27.33 254.513 27.036C255.171 26.742 256.053 26.595 257.159 26.595H260.687V28.044H257.243C256.235 28.044 255.556 28.212 255.206 28.548C254.856 28.884 254.681 29.29 254.681 29.766C254.681 30.312 254.898 30.753 255.332 31.089C255.766 31.411 256.368 31.572 257.138 31.572C257.894 31.572 258.552 31.404 259.112 31.068C259.686 30.732 260.099 30.242 260.351 29.598L260.75 30.984C260.484 31.642 260.015 32.167 259.343 32.559C258.671 32.937 257.824 33.126 256.802 33.126Z" fill="#3F5560"/>
<path d="M88.974 59V44.3H91.221L97.647 55.031H96.471L102.792 44.3H105.039L105.06 59H102.477L102.456 48.353H103.002L97.626 57.32H96.408L90.948 48.353H91.578V59H88.974ZM115.688 59V56.732L115.541 56.249V52.28C115.541 51.51 115.31 50.915 114.848 50.495C114.386 50.061 113.686 49.844 112.748 49.844C112.118 49.844 111.495 49.942 110.879 50.138C110.277 50.334 109.766 50.607 109.346 50.957L108.317 49.046C108.919 48.584 109.633 48.241 110.459 48.017C111.299 47.779 112.167 47.66 113.063 47.66C114.687 47.66 115.94 48.052 116.822 48.836C117.718 49.606 118.166 50.803 118.166 52.427V59H115.688ZM112.16 59.147C111.32 59.147 110.585 59.007 109.955 58.727C109.325 58.433 108.835 58.034 108.485 57.53C108.149 57.012 107.981 56.431 107.981 55.787C107.981 55.157 108.128 54.59 108.422 54.086C108.73 53.582 109.227 53.183 109.913 52.889C110.599 52.595 111.509 52.448 112.643 52.448H115.898V54.191H112.832C111.936 54.191 111.334 54.338 111.026 54.632C110.718 54.912 110.564 55.262 110.564 55.682C110.564 56.158 110.753 56.536 111.131 56.816C111.509 57.096 112.034 57.236 112.706 57.236C113.35 57.236 113.924 57.089 114.428 56.795C114.946 56.501 115.317 56.067 115.541 55.493L115.982 57.068C115.73 57.726 115.275 58.237 114.617 58.601C113.973 58.965 113.154 59.147 112.16 59.147ZM121.535 59V47.786H124.034V50.873L123.74 49.97C124.076 49.214 124.601 48.64 125.315 48.248C126.043 47.856 126.946 47.66 128.024 47.66V50.159C127.912 50.131 127.807 50.117 127.709 50.117C127.611 50.103 127.513 50.096 127.415 50.096C126.421 50.096 125.63 50.39 125.042 50.978C124.454 51.552 124.16 52.413 124.16 53.561V59H121.535ZM130.25 59V47.786H132.875V59H130.25ZM131.573 45.938C131.083 45.938 130.677 45.784 130.355 45.476C130.047 45.168 129.893 44.797 129.893 44.363C129.893 43.915 130.047 43.544 130.355 43.25C130.677 42.942 131.083 42.788 131.573 42.788C132.063 42.788 132.462 42.935 132.77 43.229C133.092 43.509 133.253 43.866 133.253 44.3C133.253 44.762 133.099 45.154 132.791 45.476C132.483 45.784 132.077 45.938 131.573 45.938ZM143.23 59V56.732L143.083 56.249V52.28C143.083 51.51 142.852 50.915 142.39 50.495C141.928 50.061 141.228 49.844 140.29 49.844C139.66 49.844 139.037 49.942 138.421 50.138C137.819 50.334 137.308 50.607 136.888 50.957L135.859 49.046C136.461 48.584 137.175 48.241 138.001 48.017C138.841 47.779 139.709 47.66 140.605 47.66C142.229 47.66 143.482 48.052 144.364 48.836C145.26 49.606 145.708 50.803 145.708 52.427V59H143.23ZM139.702 59.147C138.862 59.147 138.127 59.007 137.497 58.727C136.867 58.433 136.377 58.034 136.027 57.53C135.691 57.012 135.523 56.431 135.523 55.787C135.523 55.157 135.67 54.59 135.964 54.086C136.272 53.582 136.769 53.183 137.455 52.889C138.141 52.595 139.051 52.448 140.185 52.448H143.44V54.191H140.374C139.478 54.191 138.876 54.338 138.568 54.632C138.26 54.912 138.106 55.262 138.106 55.682C138.106 56.158 138.295 56.536 138.673 56.816C139.051 57.096 139.576 57.236 140.248 57.236C140.892 57.236 141.466 57.089 141.97 56.795C142.488 56.501 142.859 56.067 143.083 55.493L143.524 57.068C143.272 57.726 142.817 58.237 142.159 58.601C141.515 58.965 140.696 59.147 139.702 59.147ZM148.281 49.781L149.499 45.119L149.856 46.694C149.366 46.694 148.953 46.54 148.617 46.232C148.295 45.924 148.134 45.511 148.134 44.993C148.134 44.475 148.295 44.062 148.617 43.754C148.953 43.432 149.359 43.271 149.835 43.271C150.325 43.271 150.731 43.432 151.053 43.754C151.375 44.076 151.536 44.489 151.536 44.993C151.536 45.147 151.522 45.308 151.494 45.476C151.48 45.63 151.438 45.812 151.368 46.022C151.312 46.218 151.214 46.477 151.074 46.799L149.982 49.781H148.281ZM157.217 59.147C156.279 59.147 155.376 59.028 154.508 58.79C153.654 58.538 152.975 58.237 152.471 57.887L153.479 55.892C153.983 56.214 154.585 56.48 155.285 56.69C155.985 56.9 156.685 57.005 157.385 57.005C158.211 57.005 158.806 56.893 159.17 56.669C159.548 56.445 159.737 56.144 159.737 55.766C159.737 55.458 159.611 55.227 159.359 55.073C159.107 54.905 158.778 54.779 158.372 54.695C157.966 54.611 157.511 54.534 157.007 54.464C156.517 54.394 156.02 54.303 155.516 54.191C155.026 54.065 154.578 53.89 154.172 53.666C153.766 53.428 153.437 53.113 153.185 52.721C152.933 52.329 152.807 51.811 152.807 51.167C152.807 50.453 153.01 49.837 153.416 49.319C153.822 48.787 154.389 48.381 155.117 48.101C155.859 47.807 156.734 47.66 157.742 47.66C158.498 47.66 159.261 47.744 160.031 47.912C160.801 48.08 161.438 48.318 161.942 48.626L160.934 50.621C160.402 50.299 159.863 50.082 159.317 49.97C158.785 49.844 158.253 49.781 157.721 49.781C156.923 49.781 156.328 49.9 155.936 50.138C155.558 50.376 155.369 50.677 155.369 51.041C155.369 51.377 155.495 51.629 155.747 51.797C155.999 51.965 156.328 52.098 156.734 52.196C157.14 52.294 157.588 52.378 158.078 52.448C158.582 52.504 159.079 52.595 159.569 52.721C160.059 52.847 160.507 53.022 160.913 53.246C161.333 53.456 161.669 53.757 161.921 54.149C162.173 54.541 162.299 55.052 162.299 55.682C162.299 56.382 162.089 56.991 161.669 57.509C161.263 58.027 160.682 58.433 159.926 58.727C159.17 59.007 158.267 59.147 157.217 59.147ZM173.829 59.147C172.891 59.147 171.988 59.028 171.12 58.79C170.266 58.538 169.587 58.237 169.083 57.887L170.091 55.892C170.595 56.214 171.197 56.48 171.897 56.69C172.597 56.9 173.297 57.005 173.997 57.005C174.823 57.005 175.418 56.893 175.782 56.669C176.16 56.445 176.349 56.144 176.349 55.766C176.349 55.458 176.223 55.227 175.971 55.073C175.719 54.905 175.39 54.779 174.984 54.695C174.578 54.611 174.123 54.534 173.619 54.464C173.129 54.394 172.632 54.303 172.128 54.191C171.638 54.065 171.19 53.89 170.784 53.666C170.378 53.428 170.049 53.113 169.797 52.721C169.545 52.329 169.419 51.811 169.419 51.167C169.419 50.453 169.622 49.837 170.028 49.319C170.434 48.787 171.001 48.381 171.729 48.101C172.471 47.807 173.346 47.66 174.354 47.66C175.11 47.66 175.873 47.744 176.643 47.912C177.413 48.08 178.05 48.318 178.554 48.626L177.546 50.621C177.014 50.299 176.475 50.082 175.929 49.97C175.397 49.844 174.865 49.781 174.333 49.781C173.535 49.781 172.94 49.9 172.548 50.138C172.17 50.376 171.981 50.677 171.981 51.041C171.981 51.377 172.107 51.629 172.359 51.797C172.611 51.965 172.94 52.098 173.346 52.196C173.752 52.294 174.2 52.378 174.69 52.448C175.194 52.504 175.691 52.595 176.181 52.721C176.671 52.847 177.119 53.022 177.525 53.246C177.945 53.456 178.281 53.757 178.533 54.149C178.785 54.541 178.911 55.052 178.911 55.682C178.911 56.382 178.701 56.991 178.281 57.509C177.875 58.027 177.294 58.433 176.538 58.727C175.782 59.007 174.879 59.147 173.829 59.147ZM185.392 59.147C184.16 59.147 183.208 58.832 182.536 58.202C181.864 57.558 181.528 56.613 181.528 55.367V45.308H184.153V55.304C184.153 55.836 184.286 56.249 184.552 56.543C184.832 56.837 185.217 56.984 185.707 56.984C186.295 56.984 186.785 56.83 187.177 56.522L187.912 58.391C187.604 58.643 187.226 58.832 186.778 58.958C186.33 59.084 185.868 59.147 185.392 59.147ZM179.68 49.97V47.87H187.156V49.97H179.68ZM194.818 59.147C193.866 59.147 193.026 58.972 192.298 58.622C191.57 58.258 191.003 57.712 190.597 56.984C190.191 56.242 189.988 55.311 189.988 54.191V47.786H192.613V53.834C192.613 54.842 192.837 55.598 193.285 56.102C193.747 56.592 194.398 56.837 195.238 56.837C195.854 56.837 196.386 56.711 196.834 56.459C197.296 56.207 197.653 55.829 197.905 55.325C198.171 54.821 198.304 54.198 198.304 53.456V47.786H200.929V59H198.43V55.976L198.871 56.9C198.493 57.628 197.94 58.188 197.212 58.58C196.484 58.958 195.686 59.147 194.818 59.147ZM209.112 59.147C208.034 59.147 207.061 58.909 206.193 58.433C205.339 57.943 204.667 57.271 204.177 56.417C203.687 55.563 203.442 54.555 203.442 53.393C203.442 52.231 203.687 51.223 204.177 50.369C204.667 49.515 205.339 48.85 206.193 48.374C207.061 47.898 208.034 47.66 209.112 47.66C210.05 47.66 210.89 47.87 211.632 48.29C212.374 48.696 212.962 49.319 213.396 50.159C213.83 50.999 214.047 52.077 214.047 53.393C214.047 54.695 213.837 55.773 213.417 56.627C212.997 57.467 212.416 58.097 211.674 58.517C210.932 58.937 210.078 59.147 209.112 59.147ZM209.427 56.9C210.057 56.9 210.617 56.76 211.107 56.48C211.611 56.2 212.01 55.794 212.304 55.262C212.612 54.73 212.766 54.107 212.766 53.393C212.766 52.665 212.612 52.042 212.304 51.524C212.01 50.992 211.611 50.586 211.107 50.306C210.617 50.026 210.057 49.886 209.427 49.886C208.797 49.886 208.23 50.026 207.726 50.306C207.236 50.586 206.837 50.992 206.529 51.524C206.235 52.042 206.088 52.665 206.088 53.393C206.088 54.107 206.235 54.73 206.529 55.262C206.837 55.794 207.236 56.2 207.726 56.48C208.23 56.76 208.797 56.9 209.427 56.9ZM212.829 59V56.354L212.934 53.372L212.724 50.39V43.418H215.328V59H212.829ZM218.783 59V47.786H221.408V59H218.783ZM220.106 45.938C219.616 45.938 219.21 45.784 218.888 45.476C218.58 45.168 218.426 44.797 218.426 44.363C218.426 43.915 218.58 43.544 218.888 43.25C219.21 42.942 219.616 42.788 220.106 42.788C220.596 42.788 220.995 42.935 221.303 43.229C221.625 43.509 221.786 43.866 221.786 44.3C221.786 44.762 221.632 45.154 221.324 45.476C221.016 45.784 220.61 45.938 220.106 45.938ZM229.893 59.147C228.745 59.147 227.723 58.902 226.827 58.412C225.931 57.908 225.224 57.222 224.706 56.354C224.188 55.486 223.929 54.499 223.929 53.393C223.929 52.273 224.188 51.286 224.706 50.432C225.224 49.564 225.931 48.885 226.827 48.395C227.723 47.905 228.745 47.66 229.893 47.66C231.055 47.66 232.084 47.905 232.98 48.395C233.89 48.885 234.597 49.557 235.101 50.411C235.619 51.265 235.878 52.259 235.878 53.393C235.878 54.499 235.619 55.486 235.101 56.354C234.597 57.222 233.89 57.908 232.98 58.412C232.084 58.902 231.055 59.147 229.893 59.147ZM229.893 56.9C230.537 56.9 231.111 56.76 231.615 56.48C232.119 56.2 232.511 55.794 232.791 55.262C233.085 54.73 233.232 54.107 233.232 53.393C233.232 52.665 233.085 52.042 232.791 51.524C232.511 50.992 232.119 50.586 231.615 50.306C231.111 50.026 230.544 49.886 229.914 49.886C229.27 49.886 228.696 50.026 228.192 50.306C227.702 50.586 227.31 50.992 227.016 51.524C226.722 52.042 226.575 52.665 226.575 53.393C226.575 54.107 226.722 54.73 227.016 55.262C227.31 55.794 227.702 56.2 228.192 56.48C228.696 56.76 229.263 56.9 229.893 56.9Z" fill="#760808"/>
<mask id="mask0_1_2" style="mask-type:alpha" maskUnits="userSpaceOnUse" x="37" y="25" width="35" height="35">
<path fill-rule="evenodd" clip-rule="evenodd" d="M37.7408 38.4725V59.9421H47.0498V45.0317H61.9426V59.9421H71.2513V38.4725L54.496 25.0537L37.7408 38.4725Z" fill="white"/>
</mask>
<g mask="url(#mask0_1_2)">
<path fill-rule="evenodd" clip-rule="evenodd" d="M35.2976 62.388H73.6948V22.0843H35.2976V62.388Z" stroke="#4CAF50" stroke-width="5"/>
</g>
<mask id="mask1_1_2" style="mask-type:alpha" maskUnits="userSpaceOnUse" x="37" y="25" width="35" height="35">
<path fill-rule="evenodd" clip-rule="evenodd" d="M37.741 38.4726V59.9419H47.0497V45.0317H61.9429V59.9419H71.2514V38.4726L54.4963 25.0534L37.741 38.4726Z" fill="white"/>
</mask>
<g mask="url(#mask1_1_2)">
<path fill-rule="evenodd" clip-rule="evenodd" d="M-960.469 981.102H855.368V-783.64H-960.469V981.102Z" stroke="#4CAF50" stroke-width="5"/>
</g>
<path fill-rule="evenodd" clip-rule="evenodd" d="M71.3096 60H61.9688V45.1034H47.0237V60H37.683V38.5501L54.4963 25.1432L71.3096 38.5501V60Z" stroke="#3F5560" stroke-width="2"/>
<path d="M75 34.5L54.4962 17.8159L43.3215 26.7411V21.5347H35.8717V32.6911L33.5 34.5" stroke="#3F5560" stroke-width="2"/>
<path fill-rule="evenodd" clip-rule="evenodd" d="M49.9854 60H59.2122V47.6976H49.9854V60Z" fill="#760808"/>
<path fill-rule="evenodd" clip-rule="evenodd" d="M41.3737 28.1753L37.683 31.1435V23.352H41.3737V28.1753Z" fill="#760808"/>
</svg>
