<svg width="170" height="34" viewBox="0 0 170 34" fill="none" xmlns="http://www.w3.org/2000/svg">
<g clip-path="url(#clip0_10_2)">
<rect width="170" height="34" fill="#5F8293"/>
<mask id="mask0_10_2" style="mask-type:alpha" maskUnits="userSpaceOnUse" x="2" y="7" width="24" height="24">
<path fill-rule="evenodd" clip-rule="evenodd" d="M2.81487 16.7109V30.9616H8.99377V21.0647H18.879V30.9616H25.0577V16.7109L13.9363 7.80411L2.81487 16.7109Z" fill="white"/>
</mask>
<g mask="url(#mask0_10_2)">
<path fill-rule="evenodd" clip-rule="evenodd" d="M1.19321 32.585H26.6796V5.83315H1.19321V32.585Z" stroke="#4CAF50" stroke-width="5"/>
</g>
<mask id="mask1_10_2" style="mask-type:alpha" maskUnits="userSpaceOnUse" x="2" y="7" width="24" height="24">
<path fill-rule="evenodd" clip-rule="evenodd" d="M2.815 16.711V30.9614H8.99368V21.0647H18.8792V30.9614H25.0578V16.711L13.9364 7.80394L2.815 16.711Z" fill="white"/>
</mask>
<g mask="url(#mask1_10_2)">
<path fill-rule="evenodd" clip-rule="evenodd" d="M-659.754 642.388H545.521V-528.973H-659.754V642.388Z" stroke="#4CAF50" stroke-width="5"/>
</g>
<path fill-rule="evenodd" clip-rule="evenodd" d="M25.0964 31H18.8964V21.1123H8.97643V31H2.77646V16.7625L13.9364 7.86351L25.0964 16.7625V31Z" stroke="white" stroke-width="2"/>
<path d="M27.5459 14.0742L13.9364 3L6.51912 8.92415V5.4684H1.57427V12.8735L0 14.0742" stroke="white" stroke-width="2"/>
<path fill-rule="evenodd" clip-rule="evenodd" d="M10.9423 31H17.0666V22.8342H10.9423V31Z" fill="#E26C22"/>
<path fill-rule="evenodd" clip-rule="evenodd" d="M5.2262 9.87611L2.77646 11.8463V6.67462H5.2262V9.87611Z" fill="#E26C22"/>
<path d="M41.3574 27.835C40.8242 27.8486 40.3867 27.7529 40.0449 27.5479C39.6895 27.3428 39.416 27.042 39.2246 26.6455C39.0195 26.2627 38.8896 25.791 38.835 25.2305C38.7803 24.6836 38.7803 24.082 38.835 23.4258C38.9033 22.9199 39.0264 22.3936 39.2041 21.8467C39.3545 21.3818 39.5869 20.8691 39.9014 20.3086C40.2021 19.748 40.6123 19.2012 41.1318 18.668C41.2412 18.6953 41.3301 18.7295 41.3984 18.7705C41.4668 18.7979 41.5215 18.832 41.5625 18.873C41.6035 18.9277 41.6309 18.9756 41.6445 19.0166C41.6719 19.167 41.6309 19.3379 41.5215 19.5293C41.4121 19.7207 41.3027 19.9258 41.1934 20.1445C40.8926 20.7734 40.667 21.3682 40.5166 21.9287C40.3662 22.4893 40.2705 23.0088 40.2295 23.4873C40.2021 23.8975 40.209 24.2666 40.25 24.5947C40.2773 24.9365 40.3252 25.2236 40.3936 25.4561C40.4619 25.7021 40.5371 25.8867 40.6191 26.0098C40.7012 26.1465 40.7764 26.2148 40.8447 26.2148C40.9131 26.2148 40.9814 26.167 41.0498 26.0713C41.1318 25.9756 41.207 25.8594 41.2754 25.7227C41.3574 25.5859 41.4531 25.374 41.5625 25.0869C41.6719 24.8135 41.7881 24.4922 41.9111 24.123C42.0342 23.7539 42.1504 23.3574 42.2598 22.9336C42.3828 22.4961 42.4922 22.0586 42.5879 21.6211C42.7793 20.7461 42.9844 19.7617 43.2031 18.668C43.4219 17.5605 43.7432 16.4053 44.167 15.2021C44.3037 14.6963 44.4746 14.1426 44.6797 13.541C44.8438 13.0215 45.0488 12.4199 45.2949 11.7363C45.5547 11.0391 45.8486 10.2871 46.1768 9.48047C46.1768 9.41211 46.2314 9.35059 46.3408 9.2959C46.4639 9.22754 46.6006 9.15918 46.751 9.09082C46.915 9.02246 47.0996 8.9541 47.3047 8.88574C47.5781 8.79004 47.79 8.73535 47.9404 8.72168C48.1045 8.70801 48.2275 8.72852 48.3096 8.7832C48.3916 8.83789 48.4463 8.91309 48.4736 9.00879C48.501 9.09082 48.5146 9.18652 48.5146 9.2959C48.542 9.74707 48.5557 10.1709 48.5557 10.5674C48.5693 10.9639 48.583 11.3125 48.5967 11.6133C48.6104 11.9688 48.6172 12.29 48.6172 12.5771C48.6309 12.96 48.6104 13.4727 48.5557 14.1152C48.501 14.7441 48.4395 15.4072 48.3711 16.1045C48.3164 16.8018 48.2617 17.4854 48.207 18.1553C48.166 18.8115 48.1592 19.3584 48.1865 19.7959C48.1865 20.0283 48.1934 20.2471 48.207 20.4521C48.2344 20.6436 48.2617 20.835 48.2891 21.0264C48.4668 20.5342 48.665 20.0215 48.8838 19.4883C49.1025 18.9414 49.3213 18.4219 49.54 17.9297C49.7588 17.4238 49.9639 16.959 50.1553 16.5352C50.3467 16.0977 50.4971 15.7354 50.6064 15.4482C50.7705 15.0654 50.9893 14.5801 51.2627 13.9922C51.5361 13.4043 51.8096 12.8164 52.083 12.2285C52.3701 11.6406 52.6299 11.1006 52.8623 10.6084C53.1084 10.1162 53.2861 9.77441 53.3955 9.58301C53.4775 9.44629 53.6143 9.32324 53.8057 9.21387C54.0107 9.10449 54.2227 9.00879 54.4414 8.92676C54.6738 8.84473 54.8857 8.79004 55.0771 8.7627C55.2822 8.72168 55.4189 8.71484 55.4873 8.74219C55.665 8.7832 55.7881 8.83789 55.8564 8.90625C55.9385 8.97461 55.9863 9.02246 56 9.0498C56.0273 9.10449 56.0479 9.2002 56.0615 9.33691C56.0752 9.45996 56.0684 9.6582 56.041 9.93164C56.0137 10.2598 55.9316 10.7588 55.7949 11.4287C55.6719 12.0986 55.5146 12.8643 55.3232 13.7256C55.1455 14.5732 54.9473 15.4824 54.7285 16.4531C54.5234 17.4238 54.3252 18.3809 54.1338 19.3242C53.9424 20.2539 53.7715 21.1289 53.6211 21.9492C53.4844 22.7695 53.3955 23.46 53.3545 24.0205C53.3271 24.6494 53.3682 25.2031 53.4775 25.6816C53.5186 25.8867 53.5801 26.085 53.6621 26.2764C53.7441 26.4678 53.8535 26.6318 53.9902 26.7686C54.127 26.9189 54.291 27.0283 54.4824 27.0967C54.6738 27.165 54.8994 27.1855 55.1592 27.1582C54.8174 27.3906 54.4824 27.5615 54.1543 27.6709C53.8262 27.7803 53.5049 27.835 53.1904 27.835C52.8486 27.8486 52.5479 27.7939 52.2881 27.6709C52.0283 27.5615 51.8096 27.3975 51.6318 27.1787C51.4541 26.9736 51.3242 26.7207 51.2422 26.4199C51.1602 26.1328 51.1328 25.8115 51.1602 25.4561C51.1875 25.1279 51.2764 24.5879 51.4268 23.8359C51.5771 23.084 51.7549 22.2363 51.96 21.293C52.1787 20.3359 52.4111 19.3447 52.6572 18.3193C52.917 17.2803 53.1562 16.3096 53.375 15.4072C53.6074 14.4912 53.8057 13.7051 53.9697 13.0488C54.1338 12.3926 54.2363 11.9619 54.2773 11.7568C54.3047 11.5928 54.3252 11.4424 54.3389 11.3057C54.3662 11.1553 54.3936 11.0254 54.4209 10.916C54.2842 11.1895 54.1133 11.5176 53.9082 11.9004C53.7168 12.2832 53.5117 12.6934 53.293 13.1309C53.0742 13.5684 52.8486 14.0264 52.6162 14.5049C52.3975 14.9697 52.1855 15.4209 51.9805 15.8584C51.6387 16.5693 51.3037 17.3008 50.9756 18.0527C50.6475 18.791 50.3535 19.4951 50.0938 20.165C49.834 20.835 49.6152 21.4365 49.4375 21.9697C49.2734 22.5029 49.1777 22.9131 49.1504 23.2002V23.4873C49.1504 23.5693 49.1504 23.665 49.1504 23.7744C49.1641 23.8838 49.1846 23.9863 49.2119 24.082L48.3916 24.7178C48.2686 24.7588 48.1592 24.793 48.0635 24.8203C47.9814 24.8477 47.8994 24.8613 47.8174 24.8613C47.5029 24.8613 47.2637 24.6973 47.0996 24.3691C46.9355 24.0684 46.7852 23.4805 46.6484 22.6055C46.5117 21.7305 46.4707 20.6572 46.5254 19.3857C46.5527 18.7568 46.5938 18.1211 46.6484 17.4785C46.7168 16.8359 46.7783 16.2207 46.833 15.6328C46.9014 15.0449 46.9629 14.498 47.0176 13.9922C47.0723 13.4727 47.0996 13.0283 47.0996 12.6592C47.1133 12.3857 47.1064 12.1396 47.0791 11.9209C47.0518 11.6885 47.0244 11.4766 46.9971 11.2852C46.874 11.5996 46.7373 12.0303 46.5869 12.5771C46.4365 13.1104 46.2793 13.7051 46.1152 14.3613C45.9512 15.0176 45.7803 15.708 45.6025 16.4326C45.4385 17.1572 45.2744 17.8545 45.1104 18.5244C44.96 19.1943 44.8164 19.8164 44.6797 20.3906C44.543 20.9512 44.4336 21.4023 44.3516 21.7441C44.2148 22.291 44.0781 22.9131 43.9414 23.6104C43.8047 24.3076 43.6338 24.9639 43.4287 25.5791C43.2236 26.208 42.957 26.7344 42.6289 27.1582C42.3008 27.5957 41.877 27.8213 41.3574 27.835ZM66.8076 19.9189C66.6162 20.1924 66.3701 20.5342 66.0693 20.9443C65.7686 21.3408 65.4541 21.7441 65.126 22.1543C64.8115 22.5508 64.4971 22.9199 64.1826 23.2617C63.8818 23.5898 63.6289 23.8223 63.4238 23.959C63.2871 24.041 63.1299 24.1094 62.9521 24.1641C62.7744 24.2188 62.5898 24.2529 62.3984 24.2666C62.2207 24.2803 62.0498 24.2666 61.8857 24.2256C61.7217 24.1982 61.5781 24.1436 61.4551 24.0615C61.332 23.9658 61.2295 23.8291 61.1475 23.6514C61.0791 23.501 61.0107 23.3027 60.9424 23.0566C60.8877 22.8105 60.8672 22.5029 60.8809 22.1338C60.5527 22.6807 60.1904 23.1045 59.7939 23.4053C59.3975 23.6924 59.0215 23.9043 58.666 24.041C58.2559 24.1914 57.8457 24.2803 57.4355 24.3076C57.2441 24.3076 57.0391 24.2393 56.8203 24.1025C56.6016 23.9795 56.417 23.7812 56.2666 23.5078C56.1162 23.2207 56.0205 22.8584 55.9795 22.4209C55.9385 21.9697 55.9932 21.4365 56.1436 20.8213C56.335 19.9873 56.6357 19.2285 57.0459 18.5449C57.4697 17.8613 57.9277 17.2803 58.4199 16.8018C58.9121 16.3096 59.3975 15.9404 59.876 15.6943C60.3545 15.4482 60.751 15.3389 61.0654 15.3662C61.4346 15.4346 61.7354 15.5439 61.9678 15.6943C62.1592 15.8311 62.2822 16.0361 62.3369 16.3096C62.4053 16.5693 62.2959 16.918 62.0088 17.3555C62.2002 17.3145 62.3574 17.2871 62.4805 17.2734C62.6172 17.2598 62.7197 17.2529 62.7881 17.2529C62.8701 17.2529 62.9248 17.2598 62.9521 17.2734C62.9658 17.3008 62.9727 17.3623 62.9727 17.458C62.9727 17.54 62.9521 17.6973 62.9111 17.9297C62.8701 18.1621 62.8086 18.4766 62.7266 18.873C62.6445 19.2695 62.5352 19.7822 62.3984 20.4111C62.3711 20.5342 62.3438 20.6504 62.3164 20.7598C62.3027 20.8555 62.2822 20.958 62.2549 21.0674C62.2412 21.1631 62.2207 21.2793 62.1934 21.416C62.166 21.5527 62.1318 21.7236 62.0908 21.9287C62.0771 22.0518 62.0703 22.1885 62.0703 22.3389C62.084 22.4756 62.1113 22.6055 62.1523 22.7285C62.1934 22.8516 62.2549 22.9541 62.3369 23.0361C62.4326 23.1045 62.5625 23.1387 62.7266 23.1387C62.8633 23.1387 63.041 23.0566 63.2598 22.8926C63.4785 22.7148 63.7109 22.4961 63.957 22.2363C64.2031 21.9629 64.4561 21.6689 64.7158 21.3545C64.9893 21.0264 65.2422 20.7119 65.4746 20.4111C65.707 20.1104 65.9121 19.8438 66.0898 19.6113C66.2812 19.3789 66.418 19.208 66.5 19.0986C66.6094 18.9756 66.7188 18.9072 66.8281 18.8936C66.9375 18.8662 67.0195 18.8936 67.0742 18.9756C67.1289 19.0576 67.1357 19.1807 67.0947 19.3447C67.0674 19.5088 66.9717 19.7002 66.8076 19.9189ZM60.7988 20.8213C60.8672 20.5479 60.9492 20.2266 61.0449 19.8574C61.1406 19.4883 61.2227 19.1328 61.291 18.791C61.3594 18.4492 61.4072 18.1689 61.4346 17.9502C61.4756 17.7178 61.4688 17.6084 61.4141 17.6221C61.3457 17.6357 61.2705 17.6562 61.1885 17.6836C61.1201 17.7109 61.0312 17.7314 60.9219 17.7451C60.8125 17.7588 60.7031 17.7793 60.5938 17.8066C60.7031 17.5879 60.7646 17.4102 60.7783 17.2734C60.8057 17.123 60.8125 17.0068 60.7988 16.9248C60.7852 16.8291 60.7578 16.7539 60.7168 16.6992C60.5664 16.5762 60.2998 16.6787 59.917 17.0068C59.5479 17.3213 59.1172 17.9092 58.625 18.7705C58.4199 19.126 58.2559 19.5088 58.1328 19.9189C58.0098 20.3154 57.9209 20.6914 57.8662 21.0469C57.8252 21.4023 57.8184 21.7168 57.8457 21.9902C57.873 22.25 57.9277 22.4209 58.0098 22.5029C58.1602 22.6533 58.3311 22.7285 58.5225 22.7285C58.7139 22.7148 58.9053 22.6602 59.0967 22.5645C59.3018 22.4551 59.5 22.3184 59.6914 22.1543C59.8965 21.9902 60.0742 21.8193 60.2246 21.6416C60.3887 21.4639 60.5186 21.2998 60.6143 21.1494C60.7236 20.999 60.7852 20.8896 60.7988 20.8213ZM64.6543 23.8975C64.5586 24.0479 64.4561 24.1436 64.3467 24.1846C64.2236 24.2393 64.1211 24.2461 64.0391 24.2051C63.9434 24.1777 63.8818 24.1094 63.8545 24C63.8271 23.8906 63.8545 23.7539 63.9365 23.5898C63.9775 23.5078 64.0732 23.3232 64.2236 23.0361C64.3604 22.749 64.5312 22.4072 64.7363 22.0107C64.9277 21.6006 65.1396 21.1631 65.3721 20.6982C65.6045 20.2197 65.8232 19.7686 66.0283 19.3447C66.2471 18.9209 66.4453 18.5449 66.623 18.2168C66.8008 17.875 66.9307 17.6289 67.0127 17.4785C66.8623 17.3418 66.7598 17.2461 66.7051 17.1914C66.6504 17.123 66.6094 16.9863 66.582 16.7812C66.5547 16.6035 66.5957 16.3711 66.7051 16.084C66.8145 15.7969 66.958 15.5234 67.1357 15.2637C67.3135 14.9902 67.5117 14.7578 67.7305 14.5664C67.9492 14.375 68.1611 14.2793 68.3662 14.2793C68.749 14.2793 69.0156 14.4023 69.166 14.6484C69.3301 14.8945 69.4258 15.1475 69.4531 15.4072C69.4805 15.585 69.4668 15.8105 69.4121 16.084C69.3574 16.3574 69.2549 16.6035 69.1045 16.8223C69.1455 16.8496 69.2002 16.8838 69.2686 16.9248C69.3369 16.9521 69.4463 16.9658 69.5967 16.9658C69.8154 16.9658 69.9658 16.9521 70.0479 16.9248C70.1436 16.8975 70.2871 16.8838 70.4785 16.8838C70.7109 16.8838 70.9023 16.9453 71.0527 17.0684C71.2031 17.1777 71.3262 17.3213 71.4219 17.499C71.5176 17.6631 71.5859 17.8477 71.627 18.0527C71.6816 18.2441 71.7158 18.4219 71.7295 18.5859C71.7705 18.9277 71.6816 19.2832 71.4629 19.6523C71.2441 20.0215 70.9775 20.4248 70.6631 20.8623C70.4717 21.1357 70.2803 21.4434 70.0889 21.7852C69.8975 22.127 69.8154 22.4346 69.8428 22.708C69.8701 22.8857 69.918 23.0293 69.9863 23.1387C70.0547 23.248 70.2461 23.3027 70.5605 23.3027C70.793 23.3027 71.0459 23.2207 71.3193 23.0566C71.6064 22.8789 71.8936 22.6602 72.1807 22.4004C72.4814 22.127 72.7754 21.833 73.0625 21.5186C73.3496 21.1904 73.6162 20.876 73.8623 20.5752C74.1084 20.2607 74.3135 19.9805 74.4775 19.7344C74.6553 19.4883 74.7852 19.3105 74.8672 19.2012C74.9355 19.0918 75.0244 19.0166 75.1338 18.9756C75.2432 18.9346 75.3389 18.9346 75.4209 18.9756C75.5029 19.0166 75.5508 19.0986 75.5645 19.2217C75.5918 19.3447 75.5439 19.5088 75.4209 19.7139C75.3389 19.8506 75.1953 20.0693 74.9902 20.3701C74.7988 20.6709 74.5596 21.0059 74.2725 21.375C73.999 21.7441 73.6914 22.127 73.3496 22.5234C73.0078 22.9062 72.6455 23.2617 72.2627 23.5898C71.8936 23.9043 71.5176 24.1641 71.1348 24.3691C70.7656 24.5742 70.4102 24.6768 70.0684 24.6768C69.7129 24.6768 69.4189 24.6084 69.1865 24.4717C68.9541 24.335 68.7627 24.1709 68.6123 23.9795C68.4756 23.7744 68.373 23.5557 68.3047 23.3232C68.25 23.0771 68.2295 22.8516 68.2432 22.6465C68.2568 22.4824 68.2979 22.3115 68.3662 22.1338C68.4482 21.9424 68.5371 21.751 68.6328 21.5596C68.7422 21.3545 68.8516 21.1562 68.9609 20.9648C69.084 20.7598 69.1934 20.5615 69.2891 20.3701C69.5215 19.9736 69.7061 19.6387 69.8428 19.3652C69.9932 19.0781 70.0684 18.8389 70.0684 18.6475C70.0684 18.5244 70.041 18.415 69.9863 18.3193C69.9316 18.2236 69.8428 18.1758 69.7197 18.1758C69.6377 18.1758 69.5762 18.1826 69.5352 18.1963C69.5078 18.1963 69.4736 18.1963 69.4326 18.1963C69.4053 18.1963 69.3574 18.2031 69.2891 18.2168C69.2344 18.2168 69.1455 18.2168 69.0225 18.2168C68.8447 18.2168 68.6943 18.1895 68.5713 18.1348C68.4482 18.0801 68.332 18.0391 68.2227 18.0117C68.168 18.1074 68.0449 18.3125 67.8535 18.627C67.6621 18.9414 67.4365 19.3105 67.1768 19.7344C66.9307 20.1582 66.6641 20.6025 66.377 21.0674C66.1035 21.5322 65.8438 21.9697 65.5977 22.3799C65.3516 22.7764 65.1465 23.1182 64.9824 23.4053C64.8047 23.6787 64.6953 23.8428 64.6543 23.8975ZM78.4766 11.9209C78.4355 12.0713 78.3535 12.2217 78.2305 12.3721C78.1211 12.5088 77.9912 12.625 77.8408 12.7207C77.7041 12.8027 77.5605 12.8574 77.4102 12.8848C77.2598 12.9121 77.1367 12.8848 77.041 12.8027C76.7539 12.584 76.6035 12.3516 76.5898 12.1055C76.5762 11.8457 76.6377 11.6064 76.7744 11.3877C76.9111 11.1553 77.082 10.9639 77.2871 10.8135C77.4922 10.6494 77.6699 10.5537 77.8203 10.5264C77.9707 10.499 78.0938 10.5332 78.1895 10.6289C78.2988 10.7109 78.3809 10.8271 78.4355 10.9775C78.4902 11.1143 78.5176 11.2715 78.5176 11.4492C78.5312 11.627 78.5176 11.7842 78.4766 11.9209ZM75.6465 16.2891C75.7148 16.207 75.8447 16.1387 76.0361 16.084C76.2275 16.0293 76.4258 15.9883 76.6309 15.9609C76.8359 15.9199 77.0205 15.8994 77.1846 15.8994C77.3623 15.8857 77.4648 15.8857 77.4922 15.8994C77.5059 15.9131 77.4717 16.0566 77.3896 16.3301C77.3076 16.6035 77.2051 16.9248 77.082 17.2939C76.959 17.6631 76.8291 18.0459 76.6924 18.4424C76.5557 18.8252 76.4531 19.1396 76.3848 19.3857C76.3164 19.6318 76.2344 19.9121 76.1387 20.2266C76.043 20.5273 75.9541 20.8281 75.8721 21.1289C75.8037 21.416 75.7559 21.6895 75.7285 21.9492C75.7012 22.209 75.7217 22.4072 75.79 22.5439C75.8584 22.708 75.9336 22.8242 76.0156 22.8926C76.0977 22.9473 76.1865 22.9746 76.2822 22.9746C76.5557 22.9746 76.8975 22.8242 77.3076 22.5234C77.7314 22.2227 78.1553 21.8672 78.5791 21.457C79.0166 21.0332 79.4199 20.6094 79.7891 20.1855C80.1582 19.748 80.4316 19.3994 80.6094 19.1396C80.7188 19.0029 80.8281 18.9141 80.9375 18.873C81.0605 18.832 81.1562 18.8389 81.2246 18.8936C81.3066 18.9482 81.3477 19.0371 81.3477 19.1602C81.3613 19.2832 81.3203 19.4268 81.2246 19.5908C81.0059 19.9736 80.6846 20.4316 80.2607 20.9648C79.8369 21.4844 79.3857 21.9902 78.9072 22.4824C78.4287 22.9609 77.957 23.3711 77.4922 23.7129C77.041 24.0547 76.6719 24.2324 76.3848 24.2461C76.1523 24.2598 75.9199 24.2188 75.6875 24.123C75.4688 24.041 75.2637 23.9248 75.0723 23.7744C74.8945 23.6104 74.7441 23.4258 74.6211 23.2207C74.498 23.002 74.4297 22.7764 74.416 22.5439C74.375 22.2021 74.375 21.7373 74.416 21.1494C74.457 20.5479 74.5322 19.9395 74.6416 19.3242C74.751 18.6953 74.8877 18.1006 75.0518 17.54C75.2295 16.9795 75.4277 16.5625 75.6465 16.2891ZM90.248 19.9189C90.0566 20.1924 89.8105 20.5342 89.5098 20.9443C89.209 21.3408 88.8945 21.7441 88.5664 22.1543C88.252 22.5508 87.9375 22.9199 87.623 23.2617C87.3223 23.5898 87.0693 23.8223 86.8643 23.959C86.7275 24.041 86.5703 24.1094 86.3926 24.1641C86.2148 24.2188 86.0303 24.2529 85.8389 24.2666C85.6611 24.2803 85.4902 24.2666 85.3262 24.2256C85.1621 24.1982 85.0186 24.1436 84.8955 24.0615C84.7725 23.9658 84.6699 23.8291 84.5879 23.6514C84.5195 23.501 84.4512 23.3027 84.3828 23.0566C84.3281 22.8105 84.3076 22.5029 84.3213 22.1338C83.9932 22.6807 83.6309 23.1045 83.2344 23.4053C82.8379 23.6924 82.4619 23.9043 82.1064 24.041C81.6963 24.1914 81.2861 24.2803 80.876 24.3076C80.6846 24.3076 80.4795 24.2393 80.2607 24.1025C80.042 23.9795 79.8574 23.7812 79.707 23.5078C79.5566 23.2207 79.4609 22.8584 79.4199 22.4209C79.3789 21.9697 79.4336 21.4365 79.584 20.8213C79.7754 19.9873 80.0762 19.2285 80.4863 18.5449C80.9102 17.8613 81.3682 17.2803 81.8604 16.8018C82.3525 16.3096 82.8379 15.9404 83.3164 15.6943C83.7949 15.4482 84.1914 15.3389 84.5059 15.3662C84.875 15.4346 85.1758 15.5439 85.4082 15.6943C85.5996 15.8311 85.7227 16.0361 85.7773 16.3096C85.8457 16.5693 85.7363 16.918 85.4492 17.3555C85.6406 17.3145 85.7979 17.2871 85.9209 17.2734C86.0576 17.2598 86.1602 17.2529 86.2285 17.2529C86.3105 17.2529 86.3652 17.2598 86.3926 17.2734C86.4062 17.3008 86.4131 17.3623 86.4131 17.458C86.4131 17.54 86.3926 17.6973 86.3516 17.9297C86.3105 18.1621 86.249 18.4766 86.167 18.873C86.085 19.2695 85.9756 19.7822 85.8389 20.4111C85.8115 20.5342 85.7842 20.6504 85.7568 20.7598C85.7432 20.8555 85.7227 20.958 85.6953 21.0674C85.6816 21.1631 85.6611 21.2793 85.6338 21.416C85.6064 21.5527 85.5723 21.7236 85.5312 21.9287C85.5176 22.0518 85.5107 22.1885 85.5107 22.3389C85.5244 22.4756 85.5518 22.6055 85.5928 22.7285C85.6338 22.8516 85.6953 22.9541 85.7773 23.0361C85.873 23.1045 86.0029 23.1387 86.167 23.1387C86.3037 23.1387 86.4814 23.0566 86.7002 22.8926C86.9189 22.7148 87.1514 22.4961 87.3975 22.2363C87.6436 21.9629 87.8965 21.6689 88.1562 21.3545C88.4297 21.0264 88.6826 20.7119 88.915 20.4111C89.1475 20.1104 89.3525 19.8438 89.5303 19.6113C89.7217 19.3789 89.8584 19.208 89.9404 19.0986C90.0498 18.9756 90.1592 18.9072 90.2686 18.8936C90.3779 18.8662 90.46 18.8936 90.5146 18.9756C90.5693 19.0576 90.5762 19.1807 90.5352 19.3447C90.5078 19.5088 90.4121 19.7002 90.248 19.9189ZM84.2393 20.8213C84.3076 20.5479 84.3896 20.2266 84.4854 19.8574C84.5811 19.4883 84.6631 19.1328 84.7314 18.791C84.7998 18.4492 84.8477 18.1689 84.875 17.9502C84.916 17.7178 84.9092 17.6084 84.8545 17.6221C84.7861 17.6357 84.7109 17.6562 84.6289 17.6836C84.5605 17.7109 84.4717 17.7314 84.3623 17.7451C84.2529 17.7588 84.1436 17.7793 84.0342 17.8066C84.1436 17.5879 84.2051 17.4102 84.2188 17.2734C84.2461 17.123 84.2529 17.0068 84.2393 16.9248C84.2256 16.8291 84.1982 16.7539 84.1572 16.6992C84.0068 16.5762 83.7402 16.6787 83.3574 17.0068C82.9883 17.3213 82.5576 17.9092 82.0654 18.7705C81.8604 19.126 81.6963 19.5088 81.5732 19.9189C81.4502 20.3154 81.3613 20.6914 81.3066 21.0469C81.2656 21.4023 81.2588 21.7168 81.2861 21.9902C81.3135 22.25 81.3682 22.4209 81.4502 22.5029C81.6006 22.6533 81.7715 22.7285 81.9629 22.7285C82.1543 22.7148 82.3457 22.6602 82.5371 22.5645C82.7422 22.4551 82.9404 22.3184 83.1318 22.1543C83.3369 21.9902 83.5146 21.8193 83.665 21.6416C83.8291 21.4639 83.959 21.2998 84.0547 21.1494C84.1641 20.999 84.2256 20.8896 84.2393 20.8213ZM90.8633 12.167C90.6445 12.1396 90.46 12.0439 90.3096 11.8799C90.1729 11.7021 90.125 11.4561 90.166 11.1416C90.1934 10.9365 90.2617 10.752 90.3711 10.5879C90.4805 10.4102 90.6104 10.2598 90.7607 10.1367C90.9248 10.0137 91.1025 9.9248 91.2939 9.87012C91.4854 9.81543 91.6836 9.79492 91.8887 9.80859C92.2441 9.84961 92.4697 10.0273 92.5654 10.3418C92.6748 10.6426 92.6953 10.9775 92.627 11.3467C92.5996 11.5381 92.5449 11.7637 92.4629 12.0234C92.3809 12.2832 92.2578 12.5498 92.0938 12.8232C91.9434 13.0967 91.752 13.3633 91.5195 13.623C91.3008 13.8828 91.0342 14.1152 90.7197 14.3203C90.583 14.4023 90.4736 14.4434 90.3916 14.4434C90.3232 14.4297 90.2754 14.3955 90.248 14.3408C90.2207 14.2725 90.2139 14.1904 90.2275 14.0947C90.2549 13.999 90.3027 13.9102 90.3711 13.8281C90.5215 13.6777 90.6787 13.4521 90.8428 13.1514C91.0205 12.8369 91.1436 12.502 91.2119 12.1465C91.1436 12.1602 91.082 12.1738 91.0273 12.1875C90.9727 12.2012 90.918 12.1943 90.8633 12.167ZM95.0059 23.3027C95.0879 23.3574 95.1904 23.3848 95.3135 23.3848C95.4502 23.3848 95.5801 23.3574 95.7031 23.3027C95.8398 23.248 95.9629 23.1729 96.0723 23.0771C96.1953 22.9814 96.2842 22.8584 96.3389 22.708C96.3936 22.5576 96.3936 22.3457 96.3389 22.0723C96.2842 21.7852 96.1953 21.4844 96.0723 21.1699C95.9629 20.8418 95.8398 20.5137 95.7031 20.1855C95.5664 19.8574 95.4502 19.5566 95.3545 19.2832C95.2725 19.0781 95.2041 18.8867 95.1494 18.709C95.0947 18.5586 95.04 18.415 94.9854 18.2783C94.9443 18.1279 94.9102 18.0254 94.8828 17.9707C94.8145 18.0801 94.6914 18.2578 94.5137 18.5039C94.3496 18.75 94.165 19.0098 93.96 19.2832C93.7686 19.543 93.584 19.7891 93.4062 20.0215C93.2285 20.2402 93.1055 20.3906 93.0371 20.4727C92.9277 20.5957 92.8184 20.6709 92.709 20.6982C92.6133 20.7119 92.5312 20.6914 92.4629 20.6367C92.3945 20.5684 92.3535 20.4795 92.3398 20.3701C92.3398 20.2471 92.3945 20.1035 92.5039 19.9395C92.5859 19.8301 92.709 19.6592 92.873 19.4268C93.0371 19.1807 93.2012 18.9346 93.3652 18.6885C93.5293 18.4287 93.6797 18.2031 93.8164 18.0117C93.9531 17.8066 94.0283 17.6836 94.042 17.6426C94.0693 17.5332 94.0283 17.3896 93.9189 17.2119C93.8232 17.0342 93.8096 16.8291 93.8779 16.5967C93.9326 16.4053 94.0557 16.1865 94.2471 15.9404C94.4385 15.6807 94.6641 15.4482 94.9238 15.2432C95.1836 15.0381 95.4502 14.8877 95.7236 14.792C95.9971 14.6826 96.2432 14.6826 96.4619 14.792C96.6396 14.9014 96.7832 15.0244 96.8926 15.1611C97.002 15.2842 97.043 15.4141 97.0156 15.5508C96.9883 15.6191 96.9473 15.708 96.8926 15.8174C96.8379 15.9268 96.7559 16.0635 96.6465 16.2275C96.5371 16.3779 96.3799 16.5762 96.1748 16.8223C96.2158 17.1367 96.2705 17.4238 96.3389 17.6836C96.4209 17.9434 96.4961 18.1689 96.5645 18.3604C96.6465 18.5928 96.7354 18.8047 96.8311 18.9961C96.9541 19.2422 97.084 19.4951 97.2207 19.7549C97.3574 20.0146 97.4805 20.2744 97.5898 20.5342C97.6992 20.7803 97.7881 21.0127 97.8564 21.2314C97.9248 21.4502 97.9453 21.6348 97.918 21.7852C97.877 22.0176 97.7539 22.2979 97.5488 22.626C97.3574 22.9541 97.1113 23.2754 96.8105 23.5898C96.5234 23.8906 96.1885 24.1504 95.8057 24.3691C95.4365 24.5879 95.0469 24.6973 94.6367 24.6973C94.3496 24.6973 94.0693 24.6084 93.7959 24.4307C93.5361 24.2529 93.3105 24.0479 93.1191 23.8154C92.9414 23.5693 92.8047 23.3301 92.709 23.0977C92.627 22.8652 92.6201 22.6875 92.6885 22.5645C92.7705 22.4004 92.8457 22.2705 92.9141 22.1748C92.9824 22.0791 93.085 21.9697 93.2217 21.8467C93.2764 21.8057 93.3447 21.7578 93.4268 21.7031C93.4951 21.6621 93.5908 21.6211 93.7139 21.5801C93.8369 21.5391 93.9805 21.4912 94.1445 21.4365C94.2812 21.8604 94.4043 22.1953 94.5137 22.4414C94.623 22.6738 94.7119 22.8584 94.7803 22.9951C94.8623 23.1455 94.9375 23.248 95.0059 23.3027ZM108.274 23.3027C108.356 23.3574 108.459 23.3848 108.582 23.3848C108.719 23.3848 108.849 23.3574 108.972 23.3027C109.108 23.248 109.231 23.1729 109.341 23.0771C109.464 22.9814 109.553 22.8584 109.607 22.708C109.662 22.5576 109.662 22.3457 109.607 22.0723C109.553 21.7852 109.464 21.4844 109.341 21.1699C109.231 20.8418 109.108 20.5137 108.972 20.1855C108.835 19.8574 108.719 19.5566 108.623 19.2832C108.541 19.0781 108.473 18.8867 108.418 18.709C108.363 18.5586 108.309 18.415 108.254 18.2783C108.213 18.1279 108.179 18.0254 108.151 17.9707C108.083 18.0801 107.96 18.2578 107.782 18.5039C107.618 18.75 107.434 19.0098 107.229 19.2832C107.037 19.543 106.853 19.7891 106.675 20.0215C106.497 20.2402 106.374 20.3906 106.306 20.4727C106.196 20.5957 106.087 20.6709 105.978 20.6982C105.882 20.7119 105.8 20.6914 105.731 20.6367C105.663 20.5684 105.622 20.4795 105.608 20.3701C105.608 20.2471 105.663 20.1035 105.772 19.9395C105.854 19.8301 105.978 19.6592 106.142 19.4268C106.306 19.1807 106.47 18.9346 106.634 18.6885C106.798 18.4287 106.948 18.2031 107.085 18.0117C107.222 17.8066 107.297 17.6836 107.311 17.6426C107.338 17.5332 107.297 17.3896 107.188 17.2119C107.092 17.0342 107.078 16.8291 107.146 16.5967C107.201 16.4053 107.324 16.1865 107.516 15.9404C107.707 15.6807 107.933 15.4482 108.192 15.2432C108.452 15.0381 108.719 14.8877 108.992 14.792C109.266 14.6826 109.512 14.6826 109.73 14.792C109.908 14.9014 110.052 15.0244 110.161 15.1611C110.271 15.2842 110.312 15.4141 110.284 15.5508C110.257 15.6191 110.216 15.708 110.161 15.8174C110.106 15.9268 110.024 16.0635 109.915 16.2275C109.806 16.3779 109.648 16.5762 109.443 16.8223C109.484 17.1367 109.539 17.4238 109.607 17.6836C109.689 17.9434 109.765 18.1689 109.833 18.3604C109.915 18.5928 110.004 18.8047 110.1 18.9961C110.223 19.2422 110.353 19.4951 110.489 19.7549C110.626 20.0146 110.749 20.2744 110.858 20.5342C110.968 20.7803 111.057 21.0127 111.125 21.2314C111.193 21.4502 111.214 21.6348 111.187 21.7852C111.146 22.0176 111.022 22.2979 110.817 22.626C110.626 22.9541 110.38 23.2754 110.079 23.5898C109.792 23.8906 109.457 24.1504 109.074 24.3691C108.705 24.5879 108.315 24.6973 107.905 24.6973C107.618 24.6973 107.338 24.6084 107.064 24.4307C106.805 24.2529 106.579 24.0479 106.388 23.8154C106.21 23.5693 106.073 23.3301 105.978 23.0977C105.896 22.8652 105.889 22.6875 105.957 22.5645C106.039 22.4004 106.114 22.2705 106.183 22.1748C106.251 22.0791 106.354 21.9697 106.49 21.8467C106.545 21.8057 106.613 21.7578 106.695 21.7031C106.764 21.6621 106.859 21.6211 106.982 21.5801C107.105 21.5391 107.249 21.4912 107.413 21.4365C107.55 21.8604 107.673 22.1953 107.782 22.4414C107.892 22.6738 107.98 22.8584 108.049 22.9951C108.131 23.1455 108.206 23.248 108.274 23.3027ZM120.333 18.8115C120.388 18.7295 120.456 18.6816 120.538 18.668C120.634 18.6406 120.709 18.6475 120.764 18.6885C120.818 18.7295 120.846 18.7979 120.846 18.8936C120.859 18.9893 120.825 19.1191 120.743 19.2832C120.47 19.8027 120.107 20.3633 119.656 20.9648C119.219 21.5664 118.754 22.1338 118.262 22.667C117.77 23.1865 117.291 23.6172 116.826 23.959C116.361 24.3008 115.972 24.4717 115.657 24.4717C115.206 24.4717 114.83 24.3828 114.529 24.2051C114.229 24.0273 113.989 23.8086 113.812 23.5488C113.647 23.2891 113.531 23.0088 113.463 22.708C113.395 22.3936 113.374 22.1064 113.401 21.8467C113.415 21.6279 113.463 21.2383 113.545 20.6777C113.627 20.1035 113.736 19.4473 113.873 18.709C114.01 17.957 114.16 17.1572 114.324 16.3096C114.502 15.4482 114.687 14.6211 114.878 13.8281C114.646 13.8555 114.413 13.8828 114.181 13.9102C113.948 13.9375 113.736 13.9512 113.545 13.9512C113.107 13.9512 112.697 13.9033 112.314 13.8076C111.918 13.6982 111.624 13.5957 111.433 13.5C111.323 13.4453 111.275 13.3701 111.289 13.2744C111.303 13.165 111.344 13.0625 111.412 12.9668C111.48 12.8574 111.569 12.7686 111.679 12.7002C111.774 12.6182 111.863 12.5771 111.945 12.5771C112.205 12.6045 112.485 12.6318 112.786 12.6592C113.087 12.6729 113.415 12.6729 113.771 12.6592C114.03 12.6455 114.276 12.625 114.509 12.5977C114.755 12.5703 114.994 12.5361 115.227 12.4951C115.404 11.8389 115.575 11.2715 115.739 10.793C115.917 10.3008 116.074 9.95898 116.211 9.76758C116.252 9.69922 116.341 9.64453 116.478 9.60352C116.628 9.54883 116.785 9.51465 116.949 9.50098C117.113 9.47363 117.271 9.47363 117.421 9.50098C117.571 9.51465 117.681 9.5625 117.749 9.64453C117.817 9.75391 117.845 10.0342 117.831 10.4854C117.817 10.9365 117.742 11.5107 117.605 12.208C118.18 12.208 118.686 12.2422 119.123 12.3105C119.574 12.3652 119.957 12.4336 120.271 12.5156C120.586 12.584 120.839 12.6592 121.03 12.7412C121.222 12.8096 121.365 12.8574 121.461 12.8848C121.557 12.9121 121.604 12.9805 121.604 13.0898C121.618 13.1992 121.598 13.3154 121.543 13.4385C121.502 13.5479 121.427 13.6436 121.317 13.7256C121.208 13.8076 121.085 13.835 120.948 13.8076C120.812 13.7939 120.654 13.7666 120.477 13.7256C120.312 13.6846 120.107 13.6504 119.861 13.623C119.629 13.5957 119.349 13.5684 119.021 13.541C118.692 13.5137 118.31 13.5 117.872 13.5C117.79 13.5 117.694 13.5068 117.585 13.5205C117.489 13.5205 117.387 13.5205 117.277 13.5205C117.223 13.7393 117.168 13.958 117.113 14.1768C117.072 14.3818 117.011 14.6006 116.929 14.833C116.751 15.3799 116.546 15.9746 116.313 16.6172C116.108 17.1777 115.862 17.8203 115.575 18.5449C115.288 19.2695 114.967 20.042 114.611 20.8623C114.529 21.4502 114.536 21.9014 114.632 22.2158C114.741 22.5166 114.871 22.7354 115.021 22.8721C115.199 23.0225 115.418 23.1045 115.678 23.1182C115.883 23.1455 116.129 23.0771 116.416 22.9131C116.717 22.7354 117.024 22.5029 117.339 22.2158C117.653 21.9287 117.968 21.6143 118.282 21.2725C118.61 20.9307 118.911 20.5957 119.185 20.2676C119.458 19.9395 119.697 19.6455 119.902 19.3857C120.107 19.1123 120.251 18.9209 120.333 18.8115ZM121.646 24.3281C121.126 24.3281 120.702 24.2461 120.374 24.082C120.046 23.918 119.786 23.7197 119.595 23.4873C119.417 23.2412 119.287 22.9814 119.205 22.708C119.137 22.4209 119.103 22.1611 119.103 21.9287C119.103 21.5186 119.137 21.0879 119.205 20.6367C119.273 20.1719 119.355 19.748 119.451 19.3652C119.547 18.9688 119.629 18.6338 119.697 18.3604C119.779 18.0869 119.834 17.916 119.861 17.8477C119.984 17.4512 120.142 17.1094 120.333 16.8223C120.538 16.5215 120.818 16.3164 121.174 16.207C121.311 16.1797 121.454 16.1523 121.604 16.125C121.728 16.1113 121.851 16.1045 121.974 16.1045C122.11 16.1045 122.233 16.125 122.343 16.166C121.974 17.1094 121.68 17.8955 121.461 18.5244C121.256 19.1533 121.099 19.666 120.989 20.0625C120.866 20.5137 120.791 20.876 120.764 21.1494C120.695 21.7646 120.75 22.2295 120.928 22.5439C121.105 22.8584 121.468 23.0156 122.015 23.0156C122.37 23.0156 122.712 22.8857 123.04 22.626C123.368 22.3525 123.669 22.0039 123.942 21.5801C123.901 21.3613 123.881 21.1357 123.881 20.9033C123.881 20.4658 123.915 20.042 123.983 19.6318C124.065 19.208 124.154 18.8184 124.25 18.4629C124.359 18.0938 124.469 17.7656 124.578 17.4785C124.701 17.1914 124.804 16.9658 124.886 16.8018C125.036 16.4736 125.173 16.2754 125.296 16.207C125.419 16.125 125.617 16.0771 125.891 16.0635C126 16.0498 126.089 16.0498 126.157 16.0635C126.239 16.0635 126.308 16.0703 126.362 16.084C126.526 16.125 126.608 16.207 126.608 16.3301C126.608 16.5488 126.595 16.877 126.567 17.3145C126.54 17.752 126.458 18.2031 126.321 18.668C126.226 19.0508 126.13 19.3789 126.034 19.6523C125.952 19.9121 125.87 20.1377 125.788 20.3291C125.706 20.5068 125.624 20.6572 125.542 20.7803C125.46 20.8896 125.385 20.9922 125.316 21.0879C125.344 21.498 125.378 21.8262 125.419 22.0723C125.46 22.3184 125.508 22.5098 125.562 22.6465C125.631 22.7695 125.706 22.8584 125.788 22.9131C125.884 22.9541 125.986 22.9746 126.096 22.9746C126.287 22.9746 126.513 22.8857 126.772 22.708C127.032 22.5166 127.299 22.2842 127.572 22.0107C127.859 21.7236 128.14 21.416 128.413 21.0879C128.7 20.7461 128.96 20.4248 129.192 20.124C129.425 19.8232 129.623 19.5635 129.787 19.3447C129.951 19.1123 130.054 18.9688 130.095 18.9141C130.19 18.791 130.279 18.7158 130.361 18.6885C130.457 18.6611 130.532 18.6748 130.587 18.7295C130.642 18.7705 130.669 18.8457 130.669 18.9551C130.683 19.0508 130.655 19.1602 130.587 19.2832C130.313 19.8027 129.972 20.3564 129.562 20.9443C129.165 21.5186 128.734 22.0518 128.27 22.5439C127.818 23.0361 127.36 23.4463 126.896 23.7744C126.431 24.1025 125.993 24.2666 125.583 24.2666C125.214 24.2666 124.92 24.1436 124.701 23.8975C124.496 23.6377 124.318 23.2686 124.168 22.79C123.854 23.2822 123.484 23.665 123.061 23.9385C122.637 24.1982 122.165 24.3281 121.646 24.3281ZM135.468 20.083C135.399 20.5068 135.331 20.9102 135.263 21.293C135.208 21.6758 135.174 21.9834 135.16 22.2158C135.146 22.5576 135.208 22.8037 135.345 22.9541C135.481 23.1045 135.632 23.1797 135.796 23.1797C135.987 23.1797 136.22 23.084 136.493 22.8926C136.78 22.7012 137.081 22.4619 137.396 22.1748C137.71 21.8877 138.024 21.5732 138.339 21.2314C138.653 20.8896 138.94 20.5684 139.2 20.2676C139.474 19.9531 139.699 19.6797 139.877 19.4473C140.068 19.2148 140.198 19.0645 140.267 18.9961C140.349 18.9141 140.431 18.8662 140.513 18.8525C140.608 18.8389 140.684 18.8525 140.738 18.8936C140.793 18.9346 140.82 19.0098 140.82 19.1191C140.82 19.2285 140.766 19.3652 140.656 19.5293C140.492 19.7891 140.28 20.0967 140.021 20.4521C139.761 20.7939 139.474 21.1494 139.159 21.5186C138.845 21.8877 138.51 22.25 138.154 22.6055C137.812 22.9609 137.464 23.2754 137.108 23.5488C136.767 23.8223 136.432 24.041 136.104 24.2051C135.789 24.3828 135.502 24.4717 135.242 24.4717C135.051 24.4717 134.866 24.417 134.688 24.3076C134.524 24.1982 134.374 24.0547 134.237 23.877C134.101 23.6992 133.991 23.501 133.909 23.2822C133.841 23.0635 133.813 22.8447 133.827 22.626C133.841 22.5303 133.861 22.3662 133.889 22.1338C133.314 22.7764 132.733 23.2891 132.146 23.6719C131.571 24.041 131.018 24.2256 130.484 24.2256C130.293 24.2256 130.088 24.1777 129.869 24.082C129.65 23.9863 129.452 23.8291 129.274 23.6104C129.11 23.3916 128.974 23.1045 128.864 22.749C128.755 22.3936 128.714 21.9629 128.741 21.457C128.782 20.6641 128.939 19.9121 129.213 19.2012C129.486 18.4902 129.828 17.875 130.238 17.3555C130.662 16.8223 131.134 16.4053 131.653 16.1045C132.187 15.79 132.72 15.6328 133.253 15.6328C133.485 15.6328 133.697 15.6943 133.889 15.8174C134.08 15.9268 134.244 16.0771 134.381 16.2686C134.518 16.4463 134.627 16.6445 134.709 16.8633C134.805 17.082 134.873 17.2871 134.914 17.4785C135.01 17.082 135.099 16.6924 135.181 16.3096C135.263 15.9268 135.345 15.5645 135.427 15.2227C135.563 14.7168 135.707 14.1699 135.857 13.582C135.994 13.0762 136.151 12.4951 136.329 11.8389C136.507 11.1826 136.705 10.4922 136.924 9.76758C137.061 9.6582 137.19 9.57617 137.313 9.52148C137.437 9.4668 137.553 9.42578 137.662 9.39844C137.785 9.35742 137.901 9.33691 138.011 9.33691C138.147 9.33691 138.271 9.35742 138.38 9.39844C138.489 9.42578 138.578 9.51465 138.646 9.66504C138.729 9.80176 138.783 10.0137 138.811 10.3008C138.838 10.5879 138.838 10.9775 138.811 11.4697C138.783 12.0713 138.674 12.7275 138.482 13.4385C138.305 14.1494 138.065 14.8877 137.765 15.6533C137.464 16.4053 137.115 17.1641 136.719 17.9297C136.336 18.6816 135.919 19.3994 135.468 20.083ZM134.258 20.3496C134.312 20.0898 134.36 19.8301 134.401 19.5703C134.456 19.3105 134.518 19.0439 134.586 18.7705C134.559 18.7842 134.531 18.7979 134.504 18.8115C134.49 18.8252 134.47 18.8389 134.442 18.8525C134.292 18.9209 134.189 18.9209 134.135 18.8525C134.08 18.7705 134.053 18.6475 134.053 18.4834C134.053 18.4014 134.046 18.2578 134.032 18.0527C134.019 17.834 133.978 17.6152 133.909 17.3965C133.854 17.1641 133.766 16.9658 133.643 16.8018C133.52 16.624 133.349 16.5352 133.13 16.5352C132.815 16.5352 132.494 16.6992 132.166 17.0273C131.838 17.3418 131.53 17.7314 131.243 18.1963C130.956 18.6475 130.717 19.1328 130.525 19.6523C130.334 20.1719 130.225 20.6367 130.197 21.0469C130.17 21.7031 130.252 22.1748 130.443 22.4619C130.635 22.749 130.895 22.8926 131.223 22.8926C131.469 22.8926 131.735 22.7969 132.022 22.6055C132.323 22.4141 132.61 22.1816 132.884 21.9082C133.171 21.6348 133.431 21.3545 133.663 21.0674C133.909 20.7803 134.107 20.541 134.258 20.3496ZM143.609 11.9209C143.568 12.0713 143.486 12.2217 143.363 12.3721C143.254 12.5088 143.124 12.625 142.974 12.7207C142.837 12.8027 142.693 12.8574 142.543 12.8848C142.393 12.9121 142.27 12.8848 142.174 12.8027C141.887 12.584 141.736 12.3516 141.723 12.1055C141.709 11.8457 141.771 11.6064 141.907 11.3877C142.044 11.1553 142.215 10.9639 142.42 10.8135C142.625 10.6494 142.803 10.5537 142.953 10.5264C143.104 10.499 143.227 10.5332 143.322 10.6289C143.432 10.7109 143.514 10.8271 143.568 10.9775C143.623 11.1143 143.65 11.2715 143.65 11.4492C143.664 11.627 143.65 11.7842 143.609 11.9209ZM140.779 16.2891C140.848 16.207 140.978 16.1387 141.169 16.084C141.36 16.0293 141.559 15.9883 141.764 15.9609C141.969 15.9199 142.153 15.8994 142.317 15.8994C142.495 15.8857 142.598 15.8857 142.625 15.8994C142.639 15.9131 142.604 16.0566 142.522 16.3301C142.44 16.6035 142.338 16.9248 142.215 17.2939C142.092 17.6631 141.962 18.0459 141.825 18.4424C141.688 18.8252 141.586 19.1396 141.518 19.3857C141.449 19.6318 141.367 19.9121 141.271 20.2266C141.176 20.5273 141.087 20.8281 141.005 21.1289C140.937 21.416 140.889 21.6895 140.861 21.9492C140.834 22.209 140.854 22.4072 140.923 22.5439C140.991 22.708 141.066 22.8242 141.148 22.8926C141.23 22.9473 141.319 22.9746 141.415 22.9746C141.688 22.9746 142.03 22.8242 142.44 22.5234C142.864 22.2227 143.288 21.8672 143.712 21.457C144.149 21.0332 144.553 20.6094 144.922 20.1855C145.291 19.748 145.564 19.3994 145.742 19.1396C145.852 19.0029 145.961 18.9141 146.07 18.873C146.193 18.832 146.289 18.8389 146.357 18.8936C146.439 18.9482 146.48 19.0371 146.48 19.1602C146.494 19.2832 146.453 19.4268 146.357 19.5908C146.139 19.9736 145.817 20.4316 145.394 20.9648C144.97 21.4844 144.519 21.9902 144.04 22.4824C143.562 22.9609 143.09 23.3711 142.625 23.7129C142.174 24.0547 141.805 24.2324 141.518 24.2461C141.285 24.2598 141.053 24.2188 140.82 24.123C140.602 24.041 140.396 23.9248 140.205 23.7744C140.027 23.6104 139.877 23.4258 139.754 23.2207C139.631 23.002 139.562 22.7764 139.549 22.5439C139.508 22.2021 139.508 21.7373 139.549 21.1494C139.59 20.5479 139.665 19.9395 139.774 19.3242C139.884 18.6953 140.021 18.1006 140.185 17.54C140.362 16.9795 140.561 16.5625 140.779 16.2891ZM150.931 20.7393C150.794 21.2588 150.609 21.7441 150.377 22.1953C150.145 22.6465 149.864 23.0361 149.536 23.3643C149.222 23.6924 148.859 23.9453 148.449 24.123C148.053 24.3145 147.615 24.4102 147.137 24.4102C146.576 24.4102 146.132 24.2871 145.804 24.041C145.489 23.8086 145.25 23.5146 145.086 23.1592C144.936 22.8037 144.847 22.4141 144.819 21.9902C144.778 21.5664 144.758 21.1699 144.758 20.8008C144.758 20.541 144.792 20.2539 144.86 19.9395C144.915 19.625 144.997 19.3037 145.106 18.9756C145.216 18.6475 145.353 18.3193 145.517 17.9912C145.694 17.6631 145.899 17.3623 146.132 17.0889C146.214 16.8564 146.337 16.6514 146.501 16.4736C146.679 16.2959 146.877 16.1523 147.096 16.043C147.328 15.9199 147.574 15.8311 147.834 15.7764C148.094 15.708 148.347 15.6738 148.593 15.6738C148.634 15.6738 148.668 15.6807 148.695 15.6943C148.736 15.708 148.777 15.7217 148.818 15.7354C148.996 15.749 149.215 15.8174 149.475 15.9404C149.748 16.0635 150.008 16.248 150.254 16.4941C150.514 16.7402 150.732 17.0547 150.91 17.4375C151.088 17.8066 151.177 18.2578 151.177 18.791C151.177 18.9004 151.17 19.0371 151.156 19.2012C151.143 19.3516 151.129 19.4814 151.115 19.5908C151.43 19.4678 151.758 19.3174 152.1 19.1396C152.441 18.9619 152.77 18.7773 153.084 18.5859C153.412 18.3809 153.713 18.1758 153.986 17.9707C154.26 17.7656 154.479 17.5811 154.643 17.417C154.779 17.2939 154.896 17.2256 154.991 17.2119C155.087 17.1982 155.155 17.2256 155.196 17.2939C155.237 17.3623 155.244 17.458 155.217 17.5811C155.189 17.7041 155.114 17.8408 154.991 17.9912C154.923 18.0732 154.745 18.2373 154.458 18.4834C154.185 18.7295 153.856 18.9961 153.474 19.2832C153.091 19.5703 152.674 19.8506 152.223 20.124C151.771 20.3975 151.341 20.6025 150.931 20.7393ZM147.465 17.6221C147.424 17.7451 147.403 17.875 147.403 18.0117C147.403 18.2305 147.417 18.4629 147.444 18.709C147.472 18.9414 147.54 19.1533 147.649 19.3447C147.759 19.5361 147.93 19.7002 148.162 19.8369C148.408 19.96 148.743 20.0215 149.167 20.0215C149.235 20.0215 149.304 20.0215 149.372 20.0215C149.44 20.0078 149.509 19.9941 149.577 19.9805C149.618 19.8027 149.652 19.6455 149.68 19.5088C149.721 19.3584 149.741 19.2285 149.741 19.1191C149.769 18.8594 149.769 18.5928 149.741 18.3193C149.714 18.0459 149.659 17.7998 149.577 17.5811C149.509 17.3486 149.413 17.1641 149.29 17.0273C149.181 16.877 149.044 16.8018 148.88 16.8018C148.62 16.8018 148.367 16.877 148.121 17.0273C147.889 17.1641 147.67 17.3623 147.465 17.6221ZM146.152 21.2314C146.152 21.4775 146.166 21.7236 146.193 21.9697C146.221 22.2021 146.275 22.4141 146.357 22.6055C146.439 22.7832 146.549 22.9336 146.686 23.0566C146.822 23.166 147 23.2207 147.219 23.2207C147.465 23.2207 147.69 23.166 147.896 23.0566C148.101 22.9336 148.285 22.7832 148.449 22.6055C148.613 22.4141 148.757 22.2021 148.88 21.9697C149.017 21.7236 149.133 21.4707 149.229 21.2109C149.133 21.2246 149.037 21.2383 148.941 21.252C148.859 21.252 148.764 21.252 148.654 21.252C148.135 21.252 147.684 21.1016 147.301 20.8008C146.932 20.4863 146.645 20.0898 146.439 19.6113C146.357 19.8984 146.289 20.1787 146.234 20.4521C146.18 20.7256 146.152 20.9854 146.152 21.2314Z" fill="white"/>
</g>
<defs>
<clipPath id="clip0_10_2">
<rect width="170" height="34" fill="white"/>
</clipPath>
</defs>
</svg>
